# xmcd CD database file
#
# Track frame offsets:
#	150
#	14984
#	30175
#	43812
#	61023
#	73024
#	91163
#	108512
#	121258
#	137326
#	153231
#	169318
#	177161
#	193540
#	208845
#	227420
#	242339
#	264794
#	275532
#	290705
#	306176
#	320333
#
# Disc length: 4577 seconds
#
# Revision: 0
# Processed by: cddbd v1.5.2PL0 Copyright (c) Steve Scherf et al.
# Submitted via: CDex 1.70beta2
#
DISCID=2c11df16
DTITLE=Ella Fitzgerald - Songbooks [CD1 - Cole Porter)
DYEAR=1956
DGENRE=Jazz
TTITLE0=All through the night
TTITLE1=Anything goes
TTITLE2=Miss otis regrets
TTITLE3=Too darn hot
TTITLE4=In the still of the night
TTITLE5=I get a kick out of of you
TTITLE6=Do i love you?
TTITLE7=Always true to you in my fashion
TTITLE8=Lets do it (lets fall in love)
TTITLE9=Just one of those things
TTITLE10=Ev'ry time she says goodbye
TTITLE11=All of you
TTITLE12=Begin the beguine
TTITLE13=Get out of town
TTITLE14=I am in love
TTITLE15=From this moment on
TTITLE16=I love paris
TTITLE17=You do something to me
TTITLE18=Ridin' high
TTITLE19=Easy to love
TTITLE20=It's allright with me
TTITLE21=Why cant you behave?
EXTD=YEAR: 1956
EXTT0=
EXTT1=
EXTT2=
EXTT3=
EXTT4=
EXTT5=
EXTT6=
EXTT7=
EXTT8=
EXTT9=
EXTT10=
EXTT11=
EXTT12=
EXTT13=
EXTT14=
EXTT15=
EXTT16=
EXTT17=
EXTT18=
EXTT19=
EXTT20=
EXTT21=
PLAYORDER=
